<?xml version="1.0" encoding="iso-8859-1"?>
<!-- Uploaded to: SVG Repo, www.svgrepo.com, Generator: SVG Repo Mixer Tools -->
<svg height="800px" width="800px" version="1.1" id="Layer_1" xmlns="http://www.w3.org/2000/svg" xmlns:xlink="http://www.w3.org/1999/xlink" 
	 viewBox="0 0 508 508" xml:space="preserve">
<path style="fill:#33A5D2;" d="M34,282c0,121.2,98.8,220,220,220s220-98.8,220-220S375.2,62,254,62S34,160.8,34,282z M254,94
	c103.6,0,188,84.4,188,188s-84.4,188-188,188S66,385.6,66,282S150.4,94,254,94z"/>
<g>
	<path style="fill:#CCCCCC;" d="M258,325.6c0,0.4,0,0.8,0,1.2C258,326.4,258,326,258,325.6z"/>
	<path style="fill:#CCCCCC;" d="M257.6,165.6c0,0.4,0,0.8,0,1.2C258,166.4,258,166,257.6,165.6z"/>
</g>
<path style="fill:#F4EFEF;" d="M70,282.4c0.4-0.4,0.8-0.4,1.6-0.4h39.6c1.2,0,2,0.8,2,2s-0.8,2-2,2H71.6c-0.4,0-1.2-0.4-1.6-0.8
	c0.4,31.6,9.2,61.2,23.6,87.2l0,0L108,364c0.8-0.4,2-0.4,2.8,0.8c0.4,0.8,0.4,2-0.8,2.8L95.6,376l0,0c15.6,26.4,38,48.8,64.8,64.8
	l0,0l8.4-14.4c0.4-0.8,1.6-1.2,2.8-0.8c0.8,0.4,1.2,1.6,0.8,2.8l-8.4,14.4l0,0c26,14.8,55.6,23.2,87.2,23.6
	c-0.4-0.4-0.8-0.8-0.8-1.6v-39.6c0-1.2,0.8-2,2-2s2,0.8,2,2v39.6c0,0.8-0.4,1.2-1.2,1.6c0.4,0,0.8,0,1.2,0
	c32.8,0,63.6-8.8,90.4-23.6l0,0l-8.4-14.4c-0.4-0.8-0.4-2,0.8-2.8c0.8-0.4,2-0.4,2.8,0.8l8.4,14.4l0,0c26.4-15.6,48.8-38,64.8-64.8
	l0,0l-14.4-8.4c-0.8-0.4-1.2-1.6-0.8-2.8c0.4-0.8,1.6-1.2,2.8-0.8l14.4,8.4l0,0c14.8-26,23.2-55.6,23.6-87.2
	c-0.4,0.4-0.8,0.8-1.6,0.8h-39.6c-1.2,0-2-0.8-2-2s0.8-2,2-2h39.6c0.8,0,1.2,0.4,1.6,0.8c0-0.4,0-0.4,0-0.8
	c0-32.8-8.8-63.6-23.6-90.4l0,0l-14.4,8.4c-0.4,0-0.8,0.4-0.8,0.4c-0.8,0-1.2-0.4-1.6-0.8c-0.4-0.8-0.4-2,0.8-2.8l14.4-8.4l0,0
	c-15.6-26.4-38-48.8-64.8-64.8l0,0l-8.4,14.4c-0.4,0.8-1.2,0.8-1.6,0.8c-0.4,0-0.8,0-0.8-0.4c-0.8-0.4-1.2-1.6-0.8-2.8l8.4-14.4l0,0
	C318.8,106,288,97.6,255.2,97.6h-0.4c0.4,0.4,0.4,0.8,0.4,1.2v39.6c0,1.2-0.8,2-2,2s-2-0.8-2-2V98.8c0-0.4,0-0.8,0.4-1.2
	c-31.6,0.4-61.2,9.2-86.8,23.6l0,0l8.4,14.4c0.4,0.8,0.4,2-0.8,2.8c-0.4,0-0.8,0.4-0.8,0.4c-0.8,0-1.2-0.4-1.6-0.8l-8.4-14.4l0,0
	c-26.4,15.6-48.8,38-64.8,64.8l0,0l14.4,8.4c0.8,0.4,1.2,1.6,0.8,2.8c-0.4,0.8-1.2,0.8-1.6,0.8c-0.4,0-0.8,0-0.8-0.4l-14.4-8.4l0,0
	C80,218.4,71.6,249.2,71.6,282C70,282,70,282.4,70,282.4z M242.4,267.2c-0.4-0.4-0.4-0.8-0.4-1.2v-99.2c0-5.6,4.4-10,10-10
	s10,4.4,10,10v98c8,2.8,10.8,9.6,10.8,17.2s-2.8,14-10.8,17.2V326c0,5.6-4.4,10-10,10s-10-4.4-10-10v-28c0-0.4,0-0.8,0.4-0.8
	c-4.4-3.6-7.2-8.8-7.2-14.8C235.2,276,238,270.4,242.4,267.2z"/>
<path style="fill:#AEB1B4;" d="M268.8,282c0-8.4-6.8-14.8-14.8-14.8s-14.8,6.8-14.8,14.8c0,8.4,6.8,14.8,14.8,14.8
	c1.6,0,3.2-0.4,4.8-0.8c0.4,0,0.4-0.4,0.8-0.4C265.2,293.2,268.8,288,268.8,282z"/>
<path style="fill:#2884A9;" d="M254,6c-14.4,0-26,11.6-26,26c0,12.8,9.6,25.6,22,27.6c1.2,0,2.8,2.4,4,2.4l0,0c14.4,0,26-13.6,26-28
	S268.4,6,254,6z"/>
<path style="fill:#AEB1B4;" d="M260,263.6v-96.8c0-0.4,0-0.8,0-1.2c-0.4-2.8-2.8-4.8-6-4.8s-6,2.8-6,6v98c4-1.2,5.2-2,8-2
	C257.2,263.2,260,263.2,260,263.6z"/>
<g>
	<path style="fill:#CCCCCC;" d="M258,265.6v-2c0-0.4-2.8-0.4-4-0.4c-2.8,0-4,0.8-8,2v1.2h3.2c1.6,0,3.2-0.8,4.8-0.8
		C255.6,265.2,258,265.2,258,265.6z"/>
	<path style="fill:#CCCCCC;" d="M258,265.6c0-0.4-2.4-0.4-4-0.4s-3.2,0.8-4.8,0.8L258,265.6L258,265.6z"/>
</g>
<path style="fill:#AEB1B4;" d="M248,299.6v26.8c0,3.2,2.8,6,6,6c2.8,0,5.2-2,6-4.8c0-0.4,0-0.8,0-1.2v-25.2c0,0.4-2.8,0.4-4,0.4
	C252.8,301.2,252,300.8,248,299.6z"/>
<g>
	<path style="fill:#CCCCCC;" d="M248,298h-2v0.8c4,1.2,5.2,2,8,2c1.2,0,4,0,4-0.4v-2c0,0.4-2.4,0.8-4,0.8
		C252,299.2,249.6,298,248,298z"/>
	<path style="fill:#CCCCCC;" d="M248,298c2,0,4,1.2,6.4,1.2c1.2,0,4-0.8,4-0.8l0,0H248V298z"/>
</g>
<g>
	<path style="fill:#2884A9;" d="M96.4,84.8c-1.6-1.6-3.6-2.4-5.6-2.4s-4,0.8-5.6,2.4l-28.4,28.4c-3.2,3.2-3.2,8,0,11.2
		c2.8,2.8,8,2.8,11.2,0l0.4-0.4L96,96.4c0,0,0-0.4,0.4-0.4c1.6-1.6,2.4-3.6,2.4-5.6C98.4,88,97.6,86,96.4,84.8z"/>
	<path style="fill:#2884A9;" d="M440.4,124c2.8,2.8,8,2.8,11.2,0c3.2-3.2,3.2-8,0-11.2l-28.4-28.4c-2.8-2.8-8-2.8-11.2,0
		c-1.6,1.6-2.4,3.6-2.4,5.6s0.8,4,2.4,5.6l0.4,0.4l27.6,27.6C440,124,440,124,440.4,124z"/>
</g>
<path d="M254,508C129.6,508,28,406.8,28,282C28,157.6,129.2,56,254,56s226,101.2,226,226C480,406.4,378.4,508,254,508z M254,64
	C134,64,36,161.6,36,282s97.6,218,218,218c120,0,218-97.6,218-218S374,64,254,64z"/>
<path d="M254,472c-104.8,0-190-85.2-190-190S149.2,92,254,92s190,85.2,190,190S358.8,472,254,472z M254,100
	c-100.4,0-182,81.6-182,182s81.6,182,182,182s182-81.6,182-182S354.4,100,254,100z"/>
<path d="M254,302.8c-11.6,0-20.8-9.2-20.8-20.8s9.2-20.8,20.8-20.8s20.8,9.2,20.8,20.8S265.6,302.8,254,302.8z M254,269.2
	c-7.2,0-12.8,5.6-12.8,12.8s5.6,12.8,12.8,12.8s12.8-5.6,12.8-12.8S261.2,269.2,254,269.2z"/>
<path d="M111.2,286h-40c-2.4,0-4-1.6-4-4s1.6-4,4-4h40c2.4,0,4,1.6,4,4S113.2,286,111.2,286z"/>
<path d="M437.6,286h-40c-2.4,0-4-1.6-4-4s1.6-4,4-4h40c2.4,0,4,1.6,4,4S440,286,437.6,286z"/>
<path d="M254,469.6c-2.4,0-4-1.6-4-4v-40c0-2.4,1.6-4,4-4s4,1.6,4,4v40C258,468,256.4,469.6,254,469.6z"/>
<path d="M254,140.4c-2.4,0-4-1.6-4-4v-36c0-2.4,1.6-4,4-4s4,1.6,4,4v36C258,138.4,256.4,140.4,254,140.4z"/>
<path d="M170.4,141.2c-1.2,0-2.8-0.8-3.6-2l-8.4-14.4c-1.2-2-0.4-4.4,1.6-5.6s4.4-0.4,5.6,1.6l8.4,14.4c1.2,2,0.4,4.4-1.6,5.6
	C171.6,141.2,171.2,141.2,170.4,141.2z"/>
<path d="M346,445.2c-1.2,0-2.8-0.8-3.6-2l-8.4-14.4c-1.2-2-0.4-4.4,1.6-5.6s4.4-0.4,5.6,1.6l8.4,14.4c1.2,2,0.4,4.4-1.6,5.6
	C347.2,445.2,346.8,445.2,346,445.2z"/>
<path d="M94.8,378c-1.2,0-2.8-0.8-3.6-2c-1.2-2-0.4-4.4,1.6-5.6l14.4-8.4c2-1.2,4.4-0.4,5.6,1.6c1.2,2,0.4,4.4-1.6,5.6l-14.4,8.4
	C96,377.6,95.6,378,94.8,378z"/>
<path d="M398.8,202.4c-1.2,0-2.8-0.8-3.6-2c-1.2-2-0.4-4.4,1.6-5.6l14.4-8.4c2-1.2,4.4-0.4,5.6,1.6c1.2,2,0.4,4.4-1.6,5.6l-14.4,8.4
	C400,202.4,399.6,202.4,398.8,202.4z"/>
<path d="M413.2,378c-0.8,0-1.2,0-2-0.4l-14.4-8.4c-2-1.2-2.4-3.6-1.6-5.6s3.6-2.4,5.6-1.6l14.4,8.4c2,1.2,2.4,3.6,1.6,5.6
	C416,377.2,414.4,378,413.2,378z"/>
<path d="M109.2,202.4c-0.8,0-1.2,0-2-0.4l-14.4-8.4c-2-1.2-2.4-3.6-1.6-5.6s3.6-2.4,5.6-1.6l14.4,8.4c2,1.2,2.4,3.6,1.6,5.6
	C112,201.6,110.8,202.4,109.2,202.4z"/>
<path d="M337.6,141.2c-0.8,0-1.2,0-2-0.4c-2-1.2-2.4-3.6-1.6-5.6l8.4-14.4c1.2-2,3.6-2.4,5.6-1.6c2,1.2,2.4,3.6,1.6,5.6l-8.4,14.4
	C340.4,140.4,338.8,141.2,337.6,141.2z"/>
<path d="M162,445.2c-0.8,0-1.2,0-2-0.4c-2-1.2-2.4-3.6-1.6-5.6l8.4-14.4c1.2-2,3.6-2.4,5.6-1.6c2,1.2,2.4,3.6,1.6,5.6l-8.4,14.4
	C164.8,444.4,163.6,445.2,162,445.2z"/>
<path d="M254,64c-17.6,0-32-14.4-32-32s14.4-32,32-32s32,14.4,32,32S271.6,64,254,64z M254,8c-13.2,0-24,10.8-24,24s10.8,24,24,24
	s24-10.8,24-24S267.2,8,254,8z"/>
<path d="M262,270.4c-2.4,0-4-1.6-4-4v-99.2c0-2-2-4-4-4s-4,1.6-4,4v99.2c0,2.4-1.6,4-4,4s-4-1.6-4-4v-99.2c0-6.4,5.2-12,12-12
	s12,5.2,12,12v99.2C266,268.8,264.4,270.4,262,270.4z"/>
<path d="M254,337.6c-6.8,0-12-5.2-12-12V298c0-2.4,1.6-4,4-4s4,1.6,4,4v27.6c0,2,2,4,4,4s4-1.6,4-4V298c0-2.4,1.6-4,4-4s4,1.6,4,4
	v27.6C266,332.4,260.8,337.6,254,337.6z"/>
<path d="M96.8,128.8c-1.2,0-2-0.4-2.8-1.2l-13.2-13.2c-1.6-1.6-1.6-4,0-5.6s4-1.6,5.6,0L99.6,122c1.6,1.6,1.6,4,0,5.6
	C98.8,128.4,98,128.8,96.8,128.8z"/>
<path d="M62.4,132.4c-3.6,0-7.2-1.6-10-4c-2.8-2.8-4-6-4-10c0-3.6,1.6-7.2,4-10L80.8,80l0,0c5.6-5.6,14.4-5.6,19.6,0
	c5.2,5.2,5.2,13.6,0.4,18.8c0,0.4-0.4,0.4-0.4,0.8L72,128c-0.4,0.4-0.4,0.4-0.8,0.4C68.8,131.2,65.6,132.4,62.4,132.4z M86.4,86
	L58,114.4c-1.2,1.2-1.6,2.4-1.6,4s0.8,3.2,1.6,4c2.4,2.4,6,2.4,8.4,0c0,0,0.4-0.4,0.8-0.4l27.2-27.2c0-0.4,0.4-0.4,0.4-0.4
	c2.4-2.4,2.4-6,0-8.4S88.8,83.6,86.4,86L86.4,86z"/>
<path d="M411.2,129.2c-1.2,0-2-0.4-2.8-1.2c-1.6-1.6-1.6-4,0-5.6l13.6-13.6c1.6-1.6,4-1.6,5.6,0s1.6,4,0,5.6L414,128
	C413.2,128.8,412,129.2,411.2,129.2z"/>
<path d="M446,132.4c-3.6,0-6.8-1.2-9.2-3.6c-0.4,0-0.4-0.4-0.8-0.4L407.6,100c-0.4-0.4-0.4-0.4-0.4-0.8c-2.4-2.4-3.6-5.6-3.6-9.2
	s1.6-7.2,4-10c5.6-5.6,14.4-5.6,19.6,0l0,0l28.4,28.4c5.6,5.6,5.6,14.4,0,19.6C453.2,131.2,449.6,132.4,446,132.4z M441.2,122.4
	l0.4,0.4c2.4,2.4,6,2.4,8.4,0s2.4-6,0-8.4L421.6,86c-2.4-2.4-6-2.4-8.4,0c-1.2,1.2-1.6,2.4-1.6,4s0.8,3.2,1.6,4c0,0,0.4,0.4,0.4,0.8
	L441.2,122.4z"/>
</svg>